<?xml version="1.0" encoding="UTF-8" standalone="no"?>
<svg
   width="100%"
   height="100%"
   viewBox="0 0 153 153"
   version="1.1"
   xml:space="preserve"
   style="fill-rule:evenodd;clip-rule:evenodd;stroke-linejoin:round;stroke-miterlimit:2;"
   id="svg7"
   sodipodi:docname="logo-alt.svg"
   inkscape:version="1.4.3 (0d15f75042, 2025-12-25)"
   xmlns:inkscape="http://www.inkscape.org/namespaces/inkscape"
   xmlns:sodipodi="http://sodipodi.sourceforge.net/DTD/sodipodi-0.dtd"
   xmlns="http://www.w3.org/2000/svg"
   xmlns:svg="http://www.w3.org/2000/svg"
   xmlns:serif="http://www.serif.com/"><defs
   id="defs7" /><sodipodi:namedview
   id="namedview7"
   pagecolor="#ffffff"
   bordercolor="#111111"
   borderopacity="1"
   inkscape:showpageshadow="0"
   inkscape:pageopacity="0"
   inkscape:pagecheckerboard="1"
   inkscape:deskcolor="#d1d1d1"
   showgrid="false"
   inkscape:zoom="4.5753968"
   inkscape:cx="73.764094"
   inkscape:cy="85.675629"
   inkscape:window-width="1916"
   inkscape:window-height="1196"
   inkscape:window-x="1922"
   inkscape:window-y="2"
   inkscape:window-maximized="1"
   inkscape:current-layer="Mesa-de-trabajo1" />
    <g
   transform="matrix(1,0,0,1,-372.7206,-65.912893)"
   id="g7">
        <g
   id="Mesa-de-trabajo1"
   serif:id="Mesa de trabajo1"
   transform="matrix(0.698545,0,0,0.698545,-939.253403,-1282.478223)">
            <rect
   x="1878.152"
   y="1930.285"
   width="218.649"
   height="218.649"
   style="fill:none;"
   id="rect1" />
            <g
   transform="matrix(1.431547,0,0,1.431547,-857.689413,-880.187162)"
   id="g6">
                <g
   transform="matrix(1,0,0,1,2.675319,23.840256)"
   id="g5">
                    <g
   transform="matrix(1,0,0,1,0,-17.052615)"
   id="g4">
                        <g
   transform="matrix(1,0,0,1,700.135849,355.859056)"
   id="g1">
                            <path
   d="M1241.227,1708.003C1238.244,1709.076 1234.983,1709.226 1231.879,1708.394C1227.87,1707.32 1224.451,1704.697 1222.376,1701.102C1221.513,1699.607 1222.025,1697.696 1223.519,1696.833L1288.079,1659.559C1288.28,1659.443 1288.488,1659.352 1288.7,1659.285C1288.871,1659.142 1289.06,1659.015 1289.265,1658.908C1292.344,1657.304 1295.583,1656.271 1298.853,1655.776C1302.517,1649.039 1309.658,1644.462 1317.86,1644.462L1339.48,1644.462L1339.48,1666.082C1339.48,1671.705 1337.328,1676.83 1333.804,1680.677C1336.089,1693.137 1330.489,1706.245 1318.897,1712.938C1308.192,1719.118 1295.305,1718.138 1285.796,1711.486L1277.432,1716.316C1277.24,1716.426 1277.042,1716.514 1276.839,1716.58C1273.536,1718.1 1269.79,1718.428 1266.249,1717.479C1263.18,1716.656 1260.456,1714.926 1258.417,1712.546C1252.315,1714.751 1245.438,1712.93 1241.227,1708.003ZM1257.815,1705.961C1257.817,1705.96 1257.819,1705.959 1257.82,1705.958L1257.89,1705.917L1286.735,1689.264C1288.228,1688.401 1290.141,1688.914 1291.004,1690.407C1291.866,1691.901 1291.353,1693.814 1289.86,1694.676L1264.184,1709.5C1265.241,1710.406 1266.497,1711.075 1267.867,1711.442C1270.275,1712.087 1272.841,1711.749 1275,1710.503L1284.461,1705.04L1297.768,1697.357C1299.262,1696.495 1301.175,1697.008 1302.037,1698.501C1302.9,1699.995 1302.387,1701.908 1300.893,1702.77L1291.946,1707.936C1299.178,1711.773 1308.166,1711.916 1315.772,1707.525C1323.977,1702.788 1328.416,1694.019 1328.034,1685.16C1325.001,1686.782 1321.537,1687.702 1317.86,1687.702C1305.928,1687.702 1296.24,1678.014 1296.24,1666.082C1296.24,1664.927 1296.331,1663.794 1296.505,1662.689C1295.025,1663.128 1293.568,1663.714 1292.153,1664.451C1291.989,1664.537 1291.821,1664.606 1291.65,1664.66C1291.513,1664.775 1291.364,1664.879 1291.204,1664.972L1229.813,1700.416C1230.871,1701.322 1232.126,1701.99 1233.497,1702.357C1235.905,1703.002 1238.471,1702.665 1240.63,1701.418C1240.632,1701.417 1240.634,1701.417 1240.635,1701.416L1240.705,1701.375L1274.278,1681.992C1275.771,1681.129 1277.684,1681.642 1278.546,1683.136C1279.409,1684.629 1278.896,1686.542 1277.403,1687.404L1246.996,1704.959C1249.94,1707.482 1254.268,1708.009 1257.815,1705.961ZM1331.444,1673.275C1332.584,1671.128 1333.23,1668.68 1333.23,1666.082L1333.23,1650.712L1317.86,1650.712C1313.429,1650.712 1309.434,1652.591 1306.628,1655.595C1305.03,1657.305 1303.818,1659.381 1303.13,1661.682C1302.714,1663.076 1302.49,1664.553 1302.49,1666.082C1302.49,1674.565 1309.377,1681.452 1317.86,1681.452C1321.206,1681.452 1324.303,1680.38 1326.827,1678.563C1328.744,1677.183 1330.33,1675.373 1331.444,1673.275Z"
   style="fill:#ffffff"
   id="path1" />
                        </g>
                        <g
   transform="matrix(1.140904,0,0,1.140904,246.1032,270.5342)"
   id="g2">
                            <path
   d="M1560.44,1511.401C1558.928,1511.401 1557.701,1510.173 1557.701,1508.662C1557.701,1507.15 1558.928,1505.923 1560.44,1505.923L1581.669,1505.923L1581.669,1527.152C1581.669,1528.663 1580.441,1529.891 1578.93,1529.891C1577.418,1529.891 1576.191,1528.663 1576.191,1527.152L1576.191,1511.401L1560.44,1511.401Z"
   style="fill:#ffffff"
   id="path2" />
                        </g>
                        <g
   transform="matrix(1.477077,0,0,1.477077,328.569288,-397.528689)"
   id="g3">
                            <circle
   cx="1142.32"
   cy="1635.719"
   r="3.849"
   style="fill:#ffffff"
   id="circle2" />
                        </g>
                    </g>
                </g>
            </g>
        </g>
    </g>
</svg>
